<?xml version="1.0" encoding="UTF-8" standalone="no"?>
<!-- Created with Inkscape (http://www.inkscape.org/) -->

<svg
   xmlns:dc="http://purl.org/dc/elements/1.1/"
   xmlns:cc="http://creativecommons.org/ns#"
   xmlns:rdf="http://www.w3.org/1999/02/22-rdf-syntax-ns#"
   xmlns:svg="http://www.w3.org/2000/svg"
   xmlns="http://www.w3.org/2000/svg"
   xmlns:sodipodi="http://sodipodi.sourceforge.net/DTD/sodipodi-0.dtd"
   xmlns:inkscape="http://www.inkscape.org/namespaces/inkscape"
   width="144"
   height="144"
   viewBox="0 0 38.099999 38.100001"
   version="1.1"
   id="svg3719"
   enable-background="new"
   inkscape:version="0.92.3 (2405546, 2018-03-11)"
   sodipodi:docname="out.svg"
   inkscape:export-filename="C:\Users\saita\bitmap.png"
   inkscape:export-xdpi="96"
   inkscape:export-ydpi="96">
  <defs
     id="defs3713" />
  <sodipodi:namedview
     id="base"
     pagecolor="#ffffff"
     bordercolor="#666666"
     borderopacity="1.0"
     inkscape:pageopacity="0.0"
     inkscape:pageshadow="2"
     inkscape:zoom="4.3948651"
     inkscape:cx="93.847975"
     inkscape:cy="71.874362"
     inkscape:document-units="mm"
     inkscape:current-layer="layer1"
     showgrid="false"
     units="px"
     inkscape:window-width="1920"
     inkscape:window-height="1121"
     inkscape:window-x="-9"
     inkscape:window-y="-9"
     inkscape:window-maximized="1" />
  <metadata
     id="metadata3716">
    <rdf:RDF>
      <cc:Work
         rdf:about="">
        <dc:format>image/svg+xml</dc:format>
        <dc:type
           rdf:resource="http://purl.org/dc/dcmitype/StillImage" />
        <dc:title></dc:title>
      </cc:Work>
    </rdf:RDF>
  </metadata>
  <g
     inkscape:label="レイヤー 1"
     inkscape:groupmode="layer"
     id="layer1"
     transform="translate(0,-258.89998)">
    <rect
       id="rect3729"
       width="38.099998"
       height="38.099998"
       x="0"
       y="258.89999"
       style="fill:#eed2cc;fill-opacity:1;stroke-width:0.37168583"
       inkscape:label="rect3729"
       inkscape:export-xdpi="96"
       inkscape:export-ydpi="96" />
    <text
       xml:space="preserve"
       style="font-style:normal;font-weight:normal;font-size:10.58333302px;line-height:1.25;font-family:sans-serif;letter-spacing:0px;word-spacing:0px;fill:#000000;fill-opacity:1;stroke:none;stroke-width:0.26458332"
       x="1.9264908"
       y="280.20337"
       id="text4538"
       inkscape:export-xdpi="96"
       inkscape:export-ydpi="96"><tspan
         sodipodi:role="line"
         id="tspan4536"
         x="1.9264908"
         y="280.20337"
         style="font-size:8.46666622px;stroke-width:0.26458332">3+5=</tspan></text>
    <path
       id="path4567"
       d="m 31.689442,269.25897 c -2.493137,0 -4.107949,1.02147 -5.375742,2.84318 -0.229982,0.33047 -0.159079,0.78357 0.161734,1.02682 l 1.34741,1.02166 c 0.324,0.24567 0.784996,0.18823 1.038654,-0.12956 0.782403,-0.98018 1.362778,-1.54453 2.584905,-1.54453 0.96091,0 2.14946,0.61842 2.14946,1.55022 0,0.70441 -0.5815,1.06617 -1.530291,1.5981 -1.106433,0.62032 -2.570599,1.39233 -2.570599,3.32355 v 0.30572 c 0,0.41402 0.335619,0.74964 0.749636,0.74964 h 2.263624 c 0.414018,0 0.749637,-0.33562 0.749637,-0.74964 v -0.18031 c 0,-1.33873 3.912731,-1.39449 3.912731,-5.01718 3.3e-5,-2.72817 -2.829912,-4.79767 -5.481159,-4.79767 z m -0.313005,11.66495 c -1.193047,0 -2.163671,0.97062 -2.163671,2.16367 0,1.19302 0.970624,2.16364 2.163671,2.16364 1.193047,0 2.163672,-0.97062 2.163672,-2.16367 0,-1.19305 -0.970625,-2.16364 -2.163672,-2.16364 z"
       inkscape:connector-curvature="0"
       style="fill:currentColor;stroke-width:0.03123488" />
  </g>
</svg>
